<svg width="56" height="13" viewBox="0 0 56 13" fill="none" xmlns="http://www.w3.org/2000/svg">
<path d="M0.967969 12L4.26797 1.2H7.31297L10.613 12H8.51297L5.57297 2.475H5.96297L3.06797 12H0.967969ZM2.94797 9.75V7.845H8.64797V9.75H2.94797ZM12.1072 12V1.2H14.1472V12H12.1072ZM16.2457 7.38V5.805H20.7457V7.38H16.2457ZM22.8445 12V1.2H24.8845V12H22.8445ZM27.133 12V1.2H29.203L33.898 8.4V1.2H35.968V12H33.898L29.203 4.8V12H27.133ZM38.0607 12V1.2H44.6607V3.24H40.1007V5.58H43.7607V7.62H40.1007V12H38.0607ZM50.6498 12.225C49.5698 12.225 48.6373 11.99 47.8523 11.52C47.0723 11.05 46.4698 10.3925 46.0448 9.5475C45.6248 8.7025 45.4148 7.72 45.4148 6.6C45.4148 5.48 45.6248 4.4975 46.0448 3.6525C46.4698 2.8075 47.0723 2.15 47.8523 1.68C48.6373 1.21 49.5698 0.975 50.6498 0.975C51.7298 0.975 52.6598 1.21 53.4398 1.68C54.2248 2.15 54.8273 2.8075 55.2473 3.6525C55.6723 4.4975 55.8848 5.48 55.8848 6.6C55.8848 7.72 55.6723 8.7025 55.2473 9.5475C54.8273 10.3925 54.2248 11.05 53.4398 11.52C52.6598 11.99 51.7298 12.225 50.6498 12.225ZM50.6498 10.305C51.3348 10.315 51.9048 10.1675 52.3598 9.8625C52.8148 9.5575 53.1548 9.125 53.3798 8.565C53.6098 8.005 53.7248 7.35 53.7248 6.6C53.7248 5.85 53.6098 5.2 53.3798 4.65C53.1548 4.1 52.8148 3.6725 52.3598 3.3675C51.9048 3.0625 51.3348 2.905 50.6498 2.895C49.9648 2.885 49.3948 3.0325 48.9398 3.3375C48.4848 3.6425 48.1423 4.075 47.9123 4.635C47.6873 5.195 47.5748 5.85 47.5748 6.6C47.5748 7.35 47.6873 8 47.9123 8.55C48.1423 9.1 48.4848 9.5275 48.9398 9.8325C49.3948 10.1375 49.9648 10.295 50.6498 10.305Z" fill="white"/>
</svg>
